<svg width="480" height="480" viewBox="0 0 480 480" fill="none" xmlns="http://www.w3.org/2000/svg">
<path d="M229.126 209C229.126 220 220.126 229 209.126 229H40.126C29.126 229 20.126 220 20.126 209V40C20.126 29 29.126 20 40.126 20H209.126C220.126 20 229.126 29 229.126 40V209Z" fill="#596760"/>
<path d="M209.126 250.999C220.126 250.999 229.126 259.999 229.126 270.999V439.999C229.126 450.999 220.126 459.999 209.126 459.999H40.125C29.125 459.999 20.125 450.999 20.125 439.999V270.999C20.125 259.999 29.125 250.999 40.125 250.999H209.126Z" fill="#596760"/>
<path d="M271.125 229C260.125 229 251.125 220 251.125 209V40C251.125 29 260.125 20 271.125 20H440.126C451.126 20 460.126 29 460.126 40V209C460.126 220 451.126 229 440.126 229H271.125Z" fill="#596760"/>
<path d="M125.682 209.985C172.311 209.985 210.111 172.185 210.111 125.556C210.111 78.9272 172.311 41.127 125.682 41.127C79.0532 41.127 41.253 78.9272 41.253 125.556C41.253 172.185 79.0532 209.985 125.682 209.985Z" fill="#dddddd"/>
<path d="M459.125 350C459.125 363.75 447.875 375 434.125 375H266.125C252.375 375 241.125 363.75 241.125 350C241.125 336.25 252.375 325 266.125 325H434.125C447.875 325 459.125 336.25 459.125 350Z" fill="#596760"/>
<path d="M375.125 434C375.125 447.75 363.875 459 350.125 459C336.375 459 325.125 447.75 325.125 434V266C325.125 252.25 336.375 241 350.125 241C363.875 241 375.125 252.25 375.125 266V434Z" fill="#596760"/>
<path d="M354.569 41.127L438.999 196.167H270.141L354.569 41.127Z" fill="#dddddd"/>
<path d="M73.153 432.729L40.777 333.087L125.539 271.505L210.301 333.087L177.924 432.729H73.153Z" fill="#dddddd"/>
<defs>
</defs>
</svg>
